# xmcd CD database file
#
# Track frame offsets:
#	150
#	17600
#	34575
#	51950
#
# Disc length: 914 seconds
#
# Revision: 0
# Processed by: cddbd v1.5PL3 Copyright (c) Steve Scherf et al.
# Submitted via: CDex 1.51
#
DISCID=27039004
DTITLE=KIDS ALIVE - Never mind
DYEAR=2002
DGENRE=JPop
TTITLE0=Never mind
TTITLE1=Dear ．．．
TTITLE2=Never mind [TV MIX]
TTITLE3=Dear ．．． [TV MIX]
EXTD=YEAR: 2002
EXTT0=
EXTT1=
EXTT2=
EXTT3=
PLAYORDER=
